<svg width="21" height="20" viewBox="0 0 21 20" fill="none" xmlns="http://www.w3.org/2000/svg">
<g clip-path="url(#clip0_2832_5583)">
<path d="M19.4633 1.50886C18.7599 0.840707 17.8247 0.47273 16.83 0.47273L4.27794 0.472656C2.2245 0.472768 0.553955 2.05982 0.553994 4.01044L0.553955 15.9349C0.553994 17.8856 2.22458 19.4727 4.27798 19.4727H16.83C18.8834 19.4727 20.554 17.8856 20.554 15.9349V4.01048C20.554 3.06549 20.1666 2.17705 19.4633 1.50886ZM19.3821 15.9349C19.3821 17.2718 18.2372 18.3594 16.83 18.3594H4.27798C2.87075 18.3594 1.72587 17.2717 1.72583 15.9349L1.72587 4.0104C1.72583 2.67361 2.87071 1.58601 4.27798 1.58594L16.83 1.58601C17.5117 1.58601 18.1526 1.83817 18.6346 2.29606C19.1166 2.75399 19.3821 3.36285 19.3821 4.01048V15.9349Z" fill="white"/>
<path d="M14.0746 8.54345C13.8458 8.3261 13.4748 8.32607 13.246 8.54345L11.1398 10.5444L11.1397 4.60645C11.1397 4.29903 10.8774 4.0498 10.5538 4.0498C10.2302 4.0498 9.96787 4.29903 9.96787 4.60645L9.96791 10.5445L7.86158 8.54353C7.63279 8.32614 7.26178 8.32614 7.03295 8.54353C6.80412 8.76091 6.80412 9.11334 7.03295 9.33073L10.1395 12.2819C10.2494 12.3863 10.3984 12.4449 10.5538 12.4449C10.7092 12.4449 10.8583 12.3863 10.9681 12.2819L14.0746 9.33065C14.3034 9.11327 14.3034 8.76084 14.0746 8.54345Z" fill="white"/>
<path d="M16.2024 14.7822H4.90552C4.58192 14.7822 4.31958 15.0315 4.31958 15.3389C4.31958 15.6463 4.58192 15.8955 4.90552 15.8955H16.2024C16.526 15.8955 16.7883 15.6463 16.7883 15.3389C16.7883 15.0314 16.526 14.7822 16.2024 14.7822Z" fill="white"/>
</g>
<defs>
<clipPath id="clip0_2832_5583">
<rect width="20" height="19" fill="white" transform="translate(0.553955 0.472656)"/>
</clipPath>
</defs>
</svg>
