<svg width="16" height="17" viewBox="0 0 16 17" fill="none" xmlns="http://www.w3.org/2000/svg">
<path d="M0.000976562 15.7768C0.445777 14.2504 0.888977 12.724 1.33378 11.1976C1.36898 11.076 1.40578 10.9544 1.43778 10.8328C1.48898 10.6488 1.58498 10.5 1.73218 10.3768C1.86978 10.2632 1.99138 10.1272 2.11778 10.0008C4.20258 7.9352 6.28738 5.86961 8.37058 3.80241C8.41858 3.75442 8.46018 3.70002 8.49378 3.65842C8.77698 3.94321 9.04258 4.21041 9.33858 4.50801C9.30658 4.53041 9.24418 4.56241 9.19618 4.61041C7.03618 6.76561 4.87778 8.9208 2.72258 11.0808C2.64578 11.1592 2.58178 11.2664 2.55138 11.372C2.29218 12.228 2.04578 13.0888 1.78978 13.948C1.75778 14.0552 1.77378 14.1224 1.85538 14.196C1.98818 14.316 2.10498 14.4536 2.23938 14.572C2.28578 14.612 2.37378 14.6424 2.42978 14.628C3.29058 14.3816 4.14978 14.1304 5.00738 13.8712C5.08098 13.8488 5.14978 13.7864 5.20738 13.7272C7.39778 11.5432 9.58498 9.356 11.7722 7.17041C11.8138 7.12881 11.849 7.08241 11.873 7.05521C12.1834 7.36561 12.4842 7.66641 12.8138 7.996C12.7994 8.0056 12.7418 8.0296 12.7018 8.0696C10.545 10.2056 8.38498 12.3368 6.23938 14.484C5.94018 14.7848 5.61538 14.9704 5.21378 15.084C3.78978 15.4872 2.37218 15.9128 0.951377 16.3304C0.856977 16.3576 0.760977 16.3832 0.666577 16.4104H0.538577C0.469777 16.38 0.399377 16.3528 0.330577 16.3208C0.138577 16.2312 0.0729766 16.0488 0.000976562 15.8712V15.7768ZM4.30338 13.1256C4.26178 12.86 4.21698 12.6168 4.18818 12.3736C4.17378 12.2584 4.12738 12.212 4.01538 12.1912C3.74178 12.1384 3.47138 12.0696 3.21858 12.0136C5.48738 9.74 7.75618 7.46481 10.0106 5.20401C10.3706 5.56401 10.7466 5.93841 11.1098 6.30001C8.86338 8.5528 6.59618 10.8264 4.30338 13.1256ZM10.8378 1.43602C11.0426 1.23602 11.2474 1.02322 11.4666 0.824822C12.0954 0.258424 12.9146 0.271224 13.5274 0.869622C14.2042 1.52882 14.8714 2.19602 15.5306 2.87282C16.1546 3.51122 16.145 4.36561 15.5226 5.00241C15.3354 5.19441 15.1418 5.38161 14.9626 5.55761C13.593 4.18961 12.225 2.82322 10.8378 1.43602ZM9.16898 2.94642C9.47938 2.65522 9.79778 2.35602 10.1002 2.07122C11.5338 3.50482 12.9594 4.93201 14.3978 6.37041C14.0986 6.65041 13.777 6.95281 13.4666 7.24401L9.16898 2.94642Z" fill="white"/>
</svg>
