<svg width="45" height="39" viewBox="0 0 45 39" fill="none" xmlns="http://www.w3.org/2000/svg">
<path d="M3.58254 33.8213L20.7171 4.93346C21.7784 3.13985 22.677 3.31759 23.7383 5.1112L39.5781 32.3107C40.6663 34.1499 41.4426 36.1089 39.3191 36.1089H5.35211C3.22856 36.1088 2.4943 35.6606 3.58254 33.8213Z" fill="#ED1C24"/>
<path d="M23.1994 3.64027C23.1964 3.63526 23.1934 3.63025 23.1903 3.62533C22.9409 3.23098 22.5335 2.99388 22.0985 2.99388C21.6658 2.99388 21.258 3.22839 21.007 3.62171C21.0031 3.62784 20.9993 3.63397 20.9956 3.64018L2.78177 34.4231C2.77832 34.4289 2.77495 34.4348 2.77176 34.4408C2.28979 35.3233 2.82889 36.3836 3.86143 36.4188C3.86886 36.419 3.87628 36.4191 3.8837 36.4191H31.6317C31.9892 36.4191 32.279 36.1293 32.279 35.7718C32.279 35.4143 31.9892 35.1244 31.6317 35.1244C31.6195 35.1244 3.89337 35.125 3.8818 35.1225C3.89147 35.0945 22.0811 4.35492 22.0974 4.3204C22.1175 4.35967 40.3051 35.0789 40.3135 35.1226C40.2971 35.1268 34.2389 35.1245 34.221 35.1245C33.8635 35.1245 33.5737 35.4143 33.5737 35.7718C33.5737 36.1293 33.8635 36.4192 34.221 36.4192C34.238 36.4192 40.3174 36.4194 40.3338 36.4188C41.3525 36.3845 41.9153 35.3291 41.4232 34.4407C41.4223 34.4393 23.2028 3.64614 23.1994 3.64027ZM23.8509 13.0817C23.4006 12.594 22.7617 12.3143 22.0979 12.3143C21.4342 12.3143 20.7953 12.5939 20.345 13.0817C19.8947 13.5693 19.6667 14.2285 19.7195 14.8902L20.0519 19.0569C20.0803 19.4133 20.3921 19.6793 20.7487 19.6506C21.1051 19.6222 21.371 19.3103 21.3425 18.9539L21.01 14.7872C20.9855 14.4801 21.0872 14.1863 21.2961 13.96C21.5052 13.7337 21.7899 13.609 22.0979 13.609C22.406 13.609 22.6907 13.7337 22.8998 13.96C23.1087 14.1864 23.2104 14.4801 23.1859 14.7872L22.3348 25.4543C22.325 25.5769 22.2209 25.6729 22.0979 25.6729C21.975 25.6729 21.8709 25.5769 21.8611 25.4542L21.5226 21.2112C21.4942 20.8548 21.1824 20.5888 20.8258 20.6174C20.4694 20.6458 20.2036 20.9577 20.2321 21.3142L20.5706 25.5572C20.6336 26.3481 21.3045 26.9677 22.0979 26.9677C22.8914 26.9677 23.5623 26.3481 23.6253 25.5573L24.4764 14.8903C24.5292 14.2286 24.3013 13.5693 23.8509 13.0817ZM43.6421 33.0989L25.4284 2.31599C24.7222 1.12266 23.4773 0.410156 22.098 0.410156C20.7188 0.410156 19.4737 1.12257 18.7677 2.31599L0.553818 33.0989C-0.173354 34.3279 -0.185092 35.8023 0.522487 37.0431C1.22221 38.2702 2.4789 39.0028 3.88414 39.0028H40.3118C41.717 39.0028 42.9737 38.2702 43.6734 37.0431C44.381 35.8023 44.3693 34.3279 43.6421 33.0989ZM42.5488 36.4017C42.0824 37.2197 41.2461 37.7081 40.3119 37.7081H3.88414C2.9499 37.7081 2.11363 37.2197 1.64721 36.4017C1.17293 35.57 1.1807 34.5818 1.6681 33.7581L19.8818 2.97532C20.3526 2.17979 21.181 1.70491 22.0979 1.70491C23.0149 1.70491 23.8434 2.17979 24.3141 2.97532L42.5278 33.7581C43.0152 34.5819 43.0231 35.5701 42.5488 36.4017ZM22.0979 28.2031C20.9747 28.2031 20.0608 29.117 20.0608 30.2402C20.0608 31.3635 20.9747 32.2774 22.0979 32.2774C23.2212 32.2774 24.1351 31.3635 24.1351 30.2402C24.1351 29.117 23.2212 28.2031 22.0979 28.2031ZM22.0979 30.9827C21.6886 30.9827 21.3555 30.6496 21.3555 30.2402C21.3555 29.8309 21.6886 29.4978 22.0979 29.4978C22.5073 29.4978 22.8404 29.8309 22.8404 30.2402C22.8404 30.6496 22.5073 30.9827 22.0979 30.9827Z" fill="#ED1C24"/>
<path d="M22.0552 12.1963C20.9607 12.1963 20.1064 12.7836 20.1064 13.8248C20.1064 17.0016 20.4801 21.5665 20.4801 24.7433C20.4802 25.5709 21.2011 25.9179 22.0553 25.9179C22.696 25.9179 23.6036 25.5709 23.6036 24.7433C23.6036 21.5666 23.9773 17.0016 23.9773 13.8248C23.9773 12.7837 23.0964 12.1963 22.0552 12.1963Z" fill="white"/>
<path d="M22.082 27.7607C20.9074 27.7607 20.0264 28.6951 20.0264 29.8164C20.0264 30.9109 20.9073 31.872 22.082 31.872C23.1765 31.872 24.1109 30.9109 24.1109 29.8164C24.1109 28.6951 23.1764 27.7607 22.082 27.7607Z" fill="white"/>
</svg>
