<svg
  width="42"
  height="40"
  viewBox="0 0 42 40"
  fill="none"
  xmlns="http://www.w3.org/2000/svg"
  className="text-blue-500" 
>
  <rect x="0.552" y="0.5" width="40.9167" height="39" rx="5.5" stroke="currentColor" />
  <g clipPath="url(#clip0_2801_6221)">
<path d="M19.0935 16.0001H12.531C11.6866 16.0001 10.9998 15.3132 10.9998 14.4687V10.5312C10.9998 9.68685 11.6866 9 12.531 9H19.0935C19.938 9 20.6248 9.68685 20.6248 10.5312V14.4687C20.6248 15.3132 19.938 16.0001 19.0935 16.0001ZM12.531 10.3125C12.4103 10.3125 12.3123 10.4106 12.3123 10.5312V14.4687C12.3123 14.5895 12.4103 14.6876 12.531 14.6876H19.0935C19.2143 14.6876 19.3123 14.5895 19.3123 14.4687V10.5312C19.3123 10.4106 19.2143 10.3125 19.0935 10.3125H12.531Z" fill="currentColor"/>
<path d="M19.0935 30.0001H12.531C11.6866 30.0001 10.9998 29.3132 10.9998 28.4689V19.2814C10.9998 18.4369 11.6866 17.75 12.531 17.75H19.0935C19.938 17.75 20.6248 18.4369 20.6248 19.2814V28.4689C20.6248 29.3132 19.938 30.0001 19.0935 30.0001ZM12.531 19.0625C12.4103 19.0625 12.3123 19.1606 12.3123 19.2814V28.4689C12.3123 28.5895 12.4103 28.6876 12.531 28.6876H19.0935C19.2143 28.6876 19.3123 28.5895 19.3123 28.4689V19.2814C19.3123 19.1606 19.2143 19.0625 19.0935 19.0625H12.531Z" fill="currentColor"/>
<path d="M30.4686 30.0001H23.9061C23.0616 30.0001 22.3748 29.3132 22.3748 28.4689V24.5314C22.3748 23.6869 23.0616 23 23.9061 23H30.4686C31.313 23 31.9998 23.6869 31.9998 24.5314V28.4689C31.9998 29.3132 31.313 30.0001 30.4686 30.0001ZM23.9061 24.3125C23.7853 24.3125 23.6873 24.4106 23.6873 24.5314V28.4689C23.6873 28.5895 23.7853 28.6876 23.9061 28.6876H30.4686C30.5893 28.6876 30.6873 28.5895 30.6873 28.4689V24.5314C30.6873 24.4106 30.5893 24.3125 30.4686 24.3125H23.9061Z" fill="currentColor"/>
<path d="M30.4686 21.2501H23.9061C23.0616 21.2501 22.3748 20.5632 22.3748 19.7187V10.5312C22.3748 9.68685 23.0616 9 23.9061 9H30.4686C31.313 9 31.9998 9.68685 31.9998 10.5312V19.7187C31.9998 20.5632 31.313 21.2501 30.4686 21.2501ZM23.9061 10.3125C23.7853 10.3125 23.6873 10.4106 23.6873 10.5312V19.7187C23.6873 19.8395 23.7853 19.9376 23.9061 19.9376H30.4686C30.5893 19.9376 30.6873 19.8395 30.6873 19.7187V10.5312C30.6873 10.4106 30.5893 10.3125 30.4686 10.3125H23.9061Z" fill="currentColor"/>
 </g>
  <defs>
    <clipPath id="clip0_2801_6221">
      <rect width="21" height="21" fill="white" transform="translate(10.9998 9)" />
    </clipPath>
  </defs>
</svg>
