<svg width="40" height="41" viewBox="0 0 40 41" fill="none" xmlns="http://www.w3.org/2000/svg">
<rect y="0.955078" width="40" height="40" rx="6" fill="#855DD9"/>
<g clip-path="url(#clip0_2801_5404)">
<path d="M18.0937 17.0001H11.5312C10.6869 17.0001 10 16.3132 10 15.4687V11.5312C10 10.6869 10.6869 10 11.5312 10H18.0937C18.9382 10 19.6251 10.6869 19.6251 11.5312V15.4687C19.6251 16.3132 18.9382 17.0001 18.0937 17.0001ZM11.5312 11.3125C11.4106 11.3125 11.3125 11.4106 11.3125 11.5312V15.4687C11.3125 15.5895 11.4106 15.6876 11.5312 15.6876H18.0937C18.2145 15.6876 18.3126 15.5895 18.3126 15.4687V11.5312C18.3126 11.4106 18.2145 11.3125 18.0937 11.3125H11.5312Z" fill="white"/>
<path d="M18.0937 31.0001H11.5312C10.6869 31.0001 10 30.3132 10 29.4689V20.2814C10 19.4369 10.6869 18.75 11.5312 18.75H18.0937C18.9382 18.75 19.6251 19.4369 19.6251 20.2814V29.4689C19.6251 30.3132 18.9382 31.0001 18.0937 31.0001ZM11.5312 20.0625C11.4106 20.0625 11.3125 20.1606 11.3125 20.2814V29.4689C11.3125 29.5895 11.4106 29.6876 11.5312 29.6876H18.0937C18.2145 29.6876 18.3126 29.5895 18.3126 29.4689V20.2814C18.3126 20.1606 18.2145 20.0625 18.0937 20.0625H11.5312Z" fill="white"/>
<path d="M29.4689 31.0001H22.9064C22.0619 31.0001 21.375 30.3132 21.375 29.4689V25.5314C21.375 24.6869 22.0619 24 22.9064 24H29.4689C30.3132 24 31.0001 24.6869 31.0001 25.5314V29.4689C31.0001 30.3132 30.3132 31.0001 29.4689 31.0001ZM22.9064 25.3125C22.7856 25.3125 22.6875 25.4106 22.6875 25.5314V29.4689C22.6875 29.5895 22.7856 29.6876 22.9064 29.6876H29.4689C29.5895 29.6876 29.6876 29.5895 29.6876 29.4689V25.5314C29.6876 25.4106 29.5895 25.3125 29.4689 25.3125H22.9064Z" fill="white"/>
<path d="M29.4689 22.2501H22.9064C22.0619 22.2501 21.375 21.5632 21.375 20.7187V11.5312C21.375 10.6869 22.0619 10 22.9064 10H29.4689C30.3132 10 31.0001 10.6869 31.0001 11.5312V20.7187C31.0001 21.5632 30.3132 22.2501 29.4689 22.2501ZM22.9064 11.3125C22.7856 11.3125 22.6875 11.4106 22.6875 11.5312V20.7187C22.6875 20.8395 22.7856 20.9376 22.9064 20.9376H29.4689C29.5895 20.9376 29.6876 20.8395 29.6876 20.7187V11.5312C29.6876 11.4106 29.5895 11.3125 29.4689 11.3125H22.9064Z" fill="white"/>
</g>
<defs>
<clipPath id="clip0_2801_5404">
<rect width="21" height="21" fill="white" transform="translate(10 10)"/>
</clipPath>
</defs>
</svg>
