<svg width="28" height="28" viewBox="0 0 28 28" fill="none" xmlns="http://www.w3.org/2000/svg">
<g clip-path="url(#clip0_2801_5615)">
<path d="M17.6562 27.1562H1.34375C0.878 27.1562 0.5 26.7782 0.5 26.3125V22.375C0.5 20.0496 2.39338 18.1562 4.71875 18.1562H14.2812C16.6066 18.1562 18.5 20.0496 18.5 22.375V26.3125C18.5 26.7782 18.122 27.1562 17.6562 27.1562Z" fill="#E89416"/>
<path d="M20.1875 23.7813H17.6563C17.0341 23.7813 16.5312 23.2784 16.5312 22.6563C16.5312 22.0341 17.0341 21.5313 17.6563 21.5313H20.1875C20.8085 21.5313 21.3125 21.0273 21.3125 20.4063V11.9688C21.3125 11.3478 21.8154 10.8438 22.4375 10.8438C23.0596 10.8438 23.5625 11.3478 23.5625 11.9688V20.4063C23.5625 22.267 22.0483 23.7813 20.1875 23.7813Z" fill="#E89416"/>
<path d="M25.5312 0.15625H19.3438C18.2581 0.15625 17.375 1.03938 17.375 2.125V7.46875C17.375 10.2599 19.6464 12.5312 22.4375 12.5312C25.2286 12.5312 27.5 10.2599 27.5 7.46875V2.125C27.5 1.03938 26.6169 0.15625 25.5312 0.15625ZM24.4062 6.625H23.2812V7.75C23.2812 8.21575 22.9033 8.59375 22.4375 8.59375C21.9717 8.59375 21.5938 8.21575 21.5938 7.75V6.625H20.4688C20.003 6.625 19.625 6.247 19.625 5.78125C19.625 5.3155 20.003 4.9375 20.4688 4.9375H21.5938V3.8125C21.5938 3.34675 21.9717 2.96875 22.4375 2.96875C22.9033 2.96875 23.2812 3.34675 23.2812 3.8125V4.9375H24.4062C24.872 4.9375 25.25 5.3155 25.25 5.78125C25.25 6.247 24.872 6.625 24.4062 6.625Z" fill="#E89416"/>
<path d="M4.55005 9.83125C4.55005 9.80875 4.55005 9.775 4.5613 9.7525C5.0563 7.48 7.0813 5.78125 9.50005 5.78125C11.93 5.78125 13.9663 7.5025 14.45 9.78625C14.45 9.7975 14.4613 9.82 14.4613 9.83125C14.45 9.83125 14.4275 9.8425 14.4163 9.8425C12.5263 10.3487 11.3 8.29 11.255 8.2C11.165 8.05375 11.0188 7.9525 10.85 7.93C10.6813 7.9075 10.5125 7.9525 10.3775 8.07625C7.99255 10.2925 4.8088 9.865 4.55005 9.83125Z" fill="#E89416"/>
<path d="M13.7975 11.046C12.2787 11.046 11.1988 9.98848 10.6588 9.31348C8.09375 11.3272 5.0675 11.0347 4.44875 10.956C4.4375 11.1247 4.44875 11.2822 4.47125 11.4397C4.775 13.9485 6.9125 15.906 9.5 15.906C12.0988 15.906 14.2475 13.9372 14.5288 11.406C14.5513 11.2597 14.5625 11.1135 14.5513 10.956C14.2925 11.0235 14.045 11.046 13.7975 11.046Z" fill="#E89416"/>
</g>
<defs>
<clipPath id="clip0_2801_5615">
<rect width="27" height="27" fill="white" transform="translate(0.5 0.15625)"/>
</clipPath>
</defs>
</svg>
