<svg width="30" height="31" viewBox="0 0 30 31" fill="none" xmlns="http://www.w3.org/2000/svg">
<path d="M6.21094 18.293C7.66479 18.293 8.84766 17.1101 8.84766 15.6562C8.84766 14.2024 7.66479 13.0195 6.21094 13.0195C4.75708 13.0195 3.57422 14.2024 3.57422 15.6562C3.57422 17.1101 4.75708 18.293 6.21094 18.293Z" fill="#5464F8"/>
<path d="M15.8789 11.2617H17.6367V7.74609H21.1523V5.98828H17.6367V2.47266H15.8789V5.98828H12.3633V7.74609H15.8789V11.2617Z" fill="#5464F8"/>
<path d="M1.75781 18.293V11.2617H0V28.8398H1.75781V25.3242H14.1211V20.0508H1.75781V18.293Z" fill="#5464F8"/>
<path d="M8.93677 18.293H14.1212V14.7773H13.2423C11.1203 14.7773 9.34509 16.2896 8.93677 18.293Z" fill="#5464F8"/>
<path d="M15.8789 14.7773V25.3242H28.2422V28.8398H30C30 23.9665 30 19.6365 30 14.7773H15.8789Z" fill="#5464F8"/>
</svg>
