<svg width="34" height="35" viewBox="0 0 34 35" fill="none" xmlns="http://www.w3.org/2000/svg">
<g clip-path="url(#clip0_2801_5567)">
<path d="M29.3633 6.58144C30.8172 6.58144 32 5.44092 32 4.03891C32 3.57047 31.6069 3.19141 31.1211 3.19141C30.6353 3.19141 30.2422 3.57047 30.2422 4.03891C30.2422 4.50651 29.8474 4.88642 29.3633 4.88642H18.7579C18.2738 4.88642 17.879 4.50651 17.879 4.03891C17.879 3.57047 17.4859 3.19141 17.0001 3.19141C16.5143 3.19141 16.1212 3.57047 16.1212 4.03891C16.1212 5.14237 16.8582 6.07429 17.879 6.42533V8.27646H17.0001C16.5143 8.27646 16.1212 8.65552 16.1212 9.12397V14.322C16.1212 14.7905 16.5143 15.1695 17.0001 15.1695H20.5157C21.0015 15.1695 21.3946 14.7905 21.3946 14.322V9.12397C21.3946 8.65552 21.0015 8.27646 20.5157 8.27646H19.6368V6.58144H23.1524V18.5596H9.7593L4.99919 13.9695C4.33317 13.3305 3.18474 13.3289 2.51525 13.9711C1.8269 14.6365 1.8296 15.705 2.51525 16.368L5.51587 19.2614V27.1908C4.49506 27.5418 3.75807 28.4737 3.75807 29.5772C3.75807 30.9792 4.94084 32.1197 6.39477 32.1197C7.8487 32.1197 9.03146 30.9792 9.03146 29.5772C9.03146 28.4737 8.29447 27.5418 7.27366 27.1908V25.3396H26.668V27.1908C25.6472 27.5418 24.9102 28.4737 24.9102 29.5772C24.9102 30.9792 26.093 32.1197 27.5469 32.1197C29.0008 32.1197 30.1836 30.9792 30.1836 29.5772C30.1836 28.4737 29.4466 27.5418 28.4258 27.1908V21.9496H30.2422C31.2121 21.9496 32 21.189 32 20.2546C32 19.3202 31.2121 18.5596 30.2422 18.5596H24.9102V6.58144H29.3633ZM26.668 21.9496V23.6446H7.27366V20.9564L7.79034 21.4546C8.12338 21.7741 8.56453 21.9496 9.03146 21.9496H26.668Z" fill="#15BA9B"/>
</g>
<defs>
<clipPath id="clip0_2801_5567">
<rect width="30" height="28.9286" fill="white" transform="translate(2 3.19141)"/>
</clipPath>
</defs>
</svg>
