<svg width="34" height="35" viewBox="0 0 34 35" fill="none" xmlns="http://www.w3.org/2000/svg">
<g clip-path="url(#clip0_2801_5572)">
<path d="M20.6562 31.1562H4.34375C3.878 31.1562 3.5 30.7782 3.5 30.3125V26.375C3.5 24.0496 5.39338 22.1562 7.71875 22.1562H17.2812C19.6066 22.1562 21.5 24.0496 21.5 26.375V30.3125C21.5 30.7782 21.122 31.1562 20.6562 31.1562Z" fill="#FF3D62"/>
<path d="M23.1875 27.7813H20.6563C20.0341 27.7813 19.5312 27.2784 19.5312 26.6563C19.5312 26.0341 20.0341 25.5313 20.6563 25.5313H23.1875C23.8085 25.5313 24.3125 25.0273 24.3125 24.4063V15.9688C24.3125 15.3478 24.8154 14.8438 25.4375 14.8438C26.0596 14.8438 26.5625 15.3478 26.5625 15.9688V24.4063C26.5625 26.267 25.0483 27.7813 23.1875 27.7813Z" fill="#FF3D62"/>
<path d="M28.5312 4.15625H22.3438C21.2581 4.15625 20.375 5.03938 20.375 6.125V11.4688C20.375 14.2599 22.6464 16.5312 25.4375 16.5312C28.2286 16.5312 30.5 14.2599 30.5 11.4688V6.125C30.5 5.03938 29.6169 4.15625 28.5312 4.15625ZM27.4062 10.625H26.2812V11.75C26.2812 12.2157 25.9033 12.5938 25.4375 12.5938C24.9717 12.5938 24.5938 12.2157 24.5938 11.75V10.625H23.4688C23.003 10.625 22.625 10.247 22.625 9.78125C22.625 9.3155 23.003 8.9375 23.4688 8.9375H24.5938V7.8125C24.5938 7.34675 24.9717 6.96875 25.4375 6.96875C25.9033 6.96875 26.2812 7.34675 26.2812 7.8125V8.9375H27.4062C27.872 8.9375 28.25 9.3155 28.25 9.78125C28.25 10.247 27.872 10.625 27.4062 10.625Z" fill="#FF3D62"/>
<path d="M7.55005 13.8313C7.55005 13.8088 7.55005 13.775 7.5613 13.7525C8.0563 11.48 10.0813 9.78125 12.5 9.78125C14.93 9.78125 16.9663 11.5025 17.45 13.7863C17.45 13.7975 17.4613 13.82 17.4613 13.8313C17.45 13.8313 17.4275 13.8425 17.4163 13.8425C15.5263 14.3487 14.3 12.29 14.255 12.2C14.165 12.0538 14.0188 11.9525 13.85 11.93C13.6813 11.9075 13.5125 11.9525 13.3775 12.0763C10.9925 14.2925 7.8088 13.865 7.55005 13.8313Z" fill="#FF3D62"/>
<path d="M16.7975 15.046C15.2787 15.046 14.1988 13.9885 13.6588 13.3135C11.0937 15.3272 8.0675 15.0347 7.44875 14.956C7.4375 15.1247 7.44875 15.2822 7.47125 15.4397C7.775 17.9485 9.9125 19.906 12.5 19.906C15.0988 19.906 17.2475 17.9372 17.5288 15.406C17.5513 15.2597 17.5625 15.1135 17.5513 14.956C17.2925 15.0235 17.045 15.046 16.7975 15.046Z" fill="#FF3D62"/>
</g>
<defs>
<clipPath id="clip0_2801_5572">
<rect width="27" height="27" fill="white" transform="translate(3.5 4.15625)"/>
</clipPath>
</defs>
</svg>
