<svg width="28" height="29" viewBox="0 0 28 29" fill="none" xmlns="http://www.w3.org/2000/svg">
<path d="M6.32344 6.89619V8.35416H0.884219C0.681875 8.35416 0.515625 8.18901 0.515625 7.98557V2.54744C0.515625 2.1876 0.785781 1.86932 1.14453 1.84526C1.54813 1.81901 1.8675 2.13948 1.8675 2.5201V6.89619H6.32344Z" fill="#EFBF27"/>
<path d="M5.55786 6.89648H6.32349V8.35445H5.55786V6.89648Z" fill="#E7A523"/>
<path d="M1.34555 13.5378C1.72031 13.5378 2.02412 13.234 2.02412 12.8592C2.02412 12.4845 1.72031 12.1807 1.34555 12.1807C0.970795 12.1807 0.666992 12.4845 0.666992 12.8592C0.666992 13.234 0.970795 13.5378 1.34555 13.5378Z" fill="#868686"/>
<path d="M11.9605 13.5378C12.3353 13.5378 12.6391 13.234 12.6391 12.8592C12.6391 12.4845 12.3353 12.1807 11.9605 12.1807C11.5858 12.1807 11.282 12.4845 11.282 12.8592C11.282 13.234 11.5858 13.5378 11.9605 13.5378Z" fill="#868686"/>
<path d="M4.27975 5.67523H1.86792V4.65924C1.86792 4.20938 2.23258 3.84473 2.68244 3.84473H4.27986C4.72972 3.84473 5.09437 4.20938 5.09437 4.65924V4.86082C5.09426 5.31057 4.72961 5.67523 4.27975 5.67523Z" fill="#EEEEEE"/>
<path d="M12.79 6.28938V9.14593C12.79 9.38754 12.5941 9.58343 12.3525 9.58343H6.76074C6.51913 9.58343 6.32324 9.38754 6.32324 9.14593V5.6748H12.1755C12.515 5.6748 12.79 5.94999 12.79 6.28938Z" fill="#71C1E8"/>
<path d="M1.86743 5.67578H6.32337V6.89641H1.86743V5.67578Z" fill="#EEEEEE"/>
<path d="M5.55786 5.67578H6.32349V6.89641H5.55786V5.67578Z" fill="#AEAEAE"/>
<path d="M6.32344 20.8278V22.2858H0.884219C0.681875 22.2858 0.515625 22.1206 0.515625 21.9172V16.4791C0.515625 16.1192 0.785781 15.801 1.14453 15.7769C1.54813 15.7506 1.8675 16.0711 1.8675 16.4517V20.8278H6.32344Z" fill="#EFBF27"/>
<path d="M5.55786 20.8281H6.32349V22.2861H5.55786V20.8281Z" fill="#E7A523"/>
<path d="M1.34555 27.4694C1.72031 27.4694 2.02412 27.1656 2.02412 26.7909C2.02412 26.4161 1.72031 26.1123 1.34555 26.1123C0.970795 26.1123 0.666992 26.4161 0.666992 26.7909C0.666992 27.1656 0.970795 27.4694 1.34555 27.4694Z" fill="#868686"/>
<path d="M11.9605 27.4694C12.3353 27.4694 12.6391 27.1656 12.6391 26.7909C12.6391 26.4161 12.3353 26.1123 11.9605 26.1123C11.5858 26.1123 11.282 26.4161 11.282 26.7909C11.282 27.1656 11.5858 27.4694 11.9605 27.4694Z" fill="#868686"/>
<path d="M4.27975 19.6069H1.86792V18.5909C1.86792 18.141 2.23258 17.7764 2.68244 17.7764H4.27975C4.72961 17.7764 5.09426 18.141 5.09426 18.5909V18.7925C5.09426 19.2422 4.72961 19.6069 4.27975 19.6069Z" fill="#EEEEEE"/>
<path d="M12.79 20.221V23.0776C12.79 23.3192 12.5941 23.5151 12.3525 23.5151H6.76074C6.51913 23.5151 6.32324 23.3192 6.32324 23.0776V19.6064H12.1755C12.515 19.6064 12.79 19.8816 12.79 20.221Z" fill="#71C1E8"/>
<path d="M1.86743 19.6074H6.32337V20.828H1.86743V19.6074Z" fill="#EEEEEE"/>
<path d="M5.55786 19.6074H6.32349V20.828H5.55786V19.6074Z" fill="#AEAEAE"/>
<path d="M21.6765 6.89619V8.35416H27.1157C27.3181 8.35416 27.4843 8.18901 27.4843 7.98557V2.54744C27.4843 2.1876 27.2142 1.86932 26.8554 1.84526C26.4518 1.81901 26.1325 2.13948 26.1325 2.5201V6.89619H21.6765Z" fill="#EFBF27"/>
<path d="M21.6765 6.89551H22.4421V8.35348H21.6765V6.89551Z" fill="#E7A523"/>
<path d="M26.6544 13.5368C27.0292 13.5368 27.333 13.233 27.333 12.8583C27.333 12.4835 27.0292 12.1797 26.6544 12.1797C26.2796 12.1797 25.9758 12.4835 25.9758 12.8583C25.9758 13.233 26.2796 13.5368 26.6544 13.5368Z" fill="#868686"/>
<path d="M16.0394 13.5368C16.4142 13.5368 16.718 13.233 16.718 12.8583C16.718 12.4835 16.4142 12.1797 16.0394 12.1797C15.6646 12.1797 15.3608 12.4835 15.3608 12.8583C15.3608 13.233 15.6646 13.5368 16.0394 13.5368Z" fill="#868686"/>
<path d="M23.72 5.67425H26.132V4.65827C26.132 4.20841 25.7673 3.84375 25.3175 3.84375H23.72C23.2702 3.84375 22.9055 4.20841 22.9055 4.65827V4.85984C22.9055 5.30959 23.2702 5.67425 23.72 5.67425Z" fill="#EEEEEE"/>
<path d="M15.2097 6.28938V9.14593C15.2097 9.38754 15.4056 9.58343 15.6472 9.58343H21.239C21.4806 9.58343 21.6765 9.38754 21.6765 9.14593V5.6748H15.8243C15.4848 5.6748 15.2097 5.94999 15.2097 6.28938Z" fill="#71C1E8"/>
<path d="M21.6765 5.6748H26.1325V6.89543H21.6765V5.6748Z" fill="#EEEEEE"/>
<path d="M21.6765 5.6748H22.4421V6.89543H21.6765V5.6748Z" fill="#AEAEAE"/>
<path d="M21.6765 20.8278V22.2858H27.1157C27.3181 22.2858 27.4843 22.1206 27.4843 21.9172V16.4791C27.4843 16.1192 27.2142 15.801 26.8554 15.7769C26.4518 15.7506 26.1325 16.0711 26.1325 16.4517V20.8278H21.6765Z" fill="#EFBF27"/>
<path d="M21.6765 20.8271H22.4421V22.2851H21.6765V20.8271Z" fill="#E7A523"/>
<path d="M26.6544 27.4685C27.0292 27.4685 27.333 27.1647 27.333 26.7899C27.333 26.4151 27.0292 26.1113 26.6544 26.1113C26.2796 26.1113 25.9758 26.4151 25.9758 26.7899C25.9758 27.1647 26.2796 27.4685 26.6544 27.4685Z" fill="#868686"/>
<path d="M16.0394 27.4685C16.4142 27.4685 16.718 27.1647 16.718 26.7899C16.718 26.4151 16.4142 26.1113 16.0394 26.1113C15.6646 26.1113 15.3608 26.4151 15.3608 26.7899C15.3608 27.1647 15.6646 27.4685 16.0394 27.4685Z" fill="#868686"/>
<path d="M23.72 19.6059H26.132V18.5899C26.132 18.14 25.7673 17.7754 25.3175 17.7754H23.72C23.2702 17.7754 22.9055 18.14 22.9055 18.5899V18.7915C22.9055 19.2412 23.2702 19.6059 23.72 19.6059Z" fill="#EEEEEE"/>
<path d="M15.2097 20.221V23.0776C15.2097 23.3192 15.4056 23.5151 15.6472 23.5151H21.239C21.4806 23.5151 21.6765 23.3192 21.6765 23.0776V19.6064H15.8243C15.4848 19.6064 15.2097 19.8816 15.2097 20.221Z" fill="#71C1E8"/>
<path d="M21.6765 19.6064H26.1325V20.8271H21.6765V19.6064Z" fill="#EEEEEE"/>
<path d="M21.6765 19.6064H22.4421V20.8271H21.6765V19.6064Z" fill="#AEAEAE"/>
<path d="M11.6963 8.76312C11.5452 8.76312 11.4229 8.64073 11.4229 8.48968V7.04199H8.83887C8.68782 7.04199 8.56543 6.9196 8.56543 6.76855C8.56543 6.61751 8.68782 6.49512 8.83887 6.49512H11.6963C11.8473 6.49512 11.9697 6.61751 11.9697 6.76855V8.48968C11.9697 8.64073 11.8473 8.76312 11.6963 8.76312ZM7.74512 7.04199H7.41699C7.26595 7.04199 7.14355 6.9196 7.14355 6.76855C7.14355 6.61751 7.26595 6.49512 7.41699 6.49512H7.74512C7.89616 6.49512 8.01855 6.61751 8.01855 6.76855C8.01855 6.9196 7.89616 7.04199 7.74512 7.04199Z" fill="#C4E4FD"/>
<path d="M20.5828 8.76312C20.4317 8.76312 20.3093 8.64073 20.3093 8.48968V7.04199H17.7253C17.5743 7.04199 17.4519 6.9196 17.4519 6.76855C17.4519 6.61751 17.5743 6.49512 17.7253 6.49512H20.5828C20.7338 6.49512 20.8562 6.61751 20.8562 6.76855V8.48968C20.8562 8.64073 20.7337 8.76312 20.5828 8.76312ZM16.6316 7.04199H16.3035C16.1524 7.04199 16.03 6.9196 16.03 6.76855C16.03 6.61751 16.1524 6.49512 16.3035 6.49512H16.6316C16.7826 6.49512 16.905 6.61751 16.905 6.76855C16.905 6.9196 16.7825 7.04199 16.6316 7.04199Z" fill="#C4E4FD"/>
<path d="M11.6963 22.6948C11.5452 22.6948 11.4229 22.5724 11.4229 22.4213V20.9736H8.83887C8.68782 20.9736 8.56543 20.8512 8.56543 20.7002C8.56543 20.5491 8.68782 20.4268 8.83887 20.4268H11.6963C11.8473 20.4268 11.9697 20.5491 11.9697 20.7002V22.4213C11.9697 22.5724 11.8473 22.6948 11.6963 22.6948ZM7.74512 20.9736H7.41699C7.26595 20.9736 7.14355 20.8512 7.14355 20.7002C7.14355 20.5491 7.26595 20.4268 7.41699 20.4268H7.74512C7.89616 20.4268 8.01855 20.5491 8.01855 20.7002C8.01855 20.8512 7.89616 20.9736 7.74512 20.9736Z" fill="#C4E4FD"/>
<path d="M20.5828 22.6948C20.4317 22.6948 20.3093 22.5724 20.3093 22.4213V20.9736H17.7253C17.5743 20.9736 17.4519 20.8512 17.4519 20.7002C17.4519 20.5491 17.5743 20.4268 17.7253 20.4268H20.5828C20.7338 20.4268 20.8562 20.5491 20.8562 20.7002V22.4213C20.8562 22.5724 20.7337 22.6948 20.5828 22.6948ZM16.6316 20.9736H16.3035C16.1524 20.9736 16.03 20.8512 16.03 20.7002C16.03 20.5491 16.1524 20.4268 16.3035 20.4268H16.6316C16.7826 20.4268 16.905 20.5491 16.905 20.7002C16.905 20.8512 16.7825 20.9736 16.6316 20.9736Z" fill="#C4E4FD"/>
<path d="M9.03223 11.2295C9.18324 11.2295 9.30566 11.1071 9.30566 10.9561C9.30566 10.805 9.18324 10.6826 9.03223 10.6826C8.88121 10.6826 8.75879 10.805 8.75879 10.9561C8.75879 11.1071 8.88121 11.2295 9.03223 11.2295Z" fill="black"/>
<path d="M12.1756 5.40171C11.3263 5.40171 6.07048 5.40171 5.22195 5.40171C5.31426 5.24202 5.36796 5.0575 5.36796 4.8603V4.65905C5.36796 4.05858 4.87906 3.57077 4.27968 3.57077H2.68281C2.48549 3.57077 2.30098 3.62425 2.14129 3.71624V2.51979C2.14129 2.00529 1.72293 1.56275 1.18021 1.57041C0.648541 1.57785 0.242432 2.023 0.242432 2.54658V7.98569C0.242432 8.33974 0.530525 8.62783 0.884572 8.62783H1.07182V11.9468C0.679932 12.0648 0.393697 12.4291 0.393697 12.8589C0.393697 13.3828 0.82026 13.8105 1.34526 13.8105C1.87026 13.8105 2.29792 13.3828 2.29792 12.8589C2.29792 12.4289 2.01092 12.0647 1.6187 11.9467V11.2292H7.93839C8.08932 11.2292 8.21182 11.1067 8.21182 10.9558C8.21182 10.8048 8.08932 10.6823 7.93839 10.6823H1.6187V8.62772H6.05057V9.14561C6.05057 9.53718 6.36885 9.85655 6.76151 9.85655H11.6878V10.6823H10.1259C9.97604 10.6823 9.85245 10.8048 9.85245 10.9558C9.85245 11.1067 9.97604 11.2292 10.1259 11.2292H11.6878V11.9465C11.2959 12.0643 11.0085 12.4287 11.0085 12.8588C11.0085 13.3827 11.4362 13.8103 11.9601 13.8103C12.4851 13.8103 12.9128 13.3827 12.9128 12.8588C12.9128 12.4288 12.6258 12.0646 12.2335 11.9466V9.85655H12.3528C12.7443 9.85655 13.0637 9.53718 13.0637 9.14561V6.28874C13.0637 5.79994 12.6656 5.40171 12.1756 5.40171ZM1.75104 12.8589C1.74995 13.0809 1.56838 13.2625 1.34526 13.2636C1.12213 13.2625 0.940572 13.0809 0.940572 12.8589C0.940572 12.6359 1.12213 12.4531 1.34526 12.4531C1.56838 12.4531 1.74995 12.6359 1.75104 12.8589ZM12.3659 12.8589C12.3648 13.0809 12.1832 13.2625 11.9601 13.2636C11.7381 13.2625 11.5554 13.0809 11.5554 12.8589C11.5554 12.6359 11.7381 12.4531 11.9601 12.4531C12.1832 12.4531 12.3648 12.6359 12.3659 12.8589ZM6.04948 6.62189H2.14151V5.94858H6.04948V6.62189ZM2.14151 4.65905C2.14151 4.36057 2.38432 4.11764 2.68292 4.11764H4.27979C4.57729 4.11764 4.8201 4.36057 4.8212 4.65905V4.8603C4.8201 5.15791 4.57729 5.40061 4.27979 5.40171H2.14151V4.65905ZM0.884682 8.08085C0.833057 8.08085 0.789416 8.03732 0.789416 7.98558V2.54658C0.789416 2.32236 0.962119 2.11729 1.19148 2.11729C1.42259 2.11729 1.59453 2.30541 1.59453 2.51989C1.59453 2.5608 1.59431 6.85968 1.59507 6.90047C1.5977 7.05458 1.72479 7.16932 1.86807 7.16932H6.05003V8.08096C5.30037 8.08085 1.55996 8.08085 0.884682 8.08085ZM12.5168 9.14561C12.5168 9.23639 12.4435 9.30968 12.3528 9.30968H6.76151C6.67073 9.30968 6.59745 9.23639 6.59635 9.14561C6.59635 8.59447 6.59745 6.92563 6.59745 5.94749H12.1756C12.3637 5.94858 12.5168 6.10171 12.5168 6.28874V9.14561Z" fill="black"/>
<path d="M26.8737 1.57252C26.3028 1.53467 25.8584 1.98913 25.8584 2.51971V3.71594C25.699 3.62407 25.5148 3.57069 25.318 3.57069H23.72C23.1207 3.57069 22.6318 4.0585 22.6318 4.65897V4.86022C22.6318 5.05742 22.6855 5.24194 22.7778 5.40163C21.4382 5.40163 20.4652 5.40163 19.2213 5.40163C19.0704 5.40163 18.9479 5.52413 18.9479 5.67397C18.9479 5.82491 19.0704 5.9485 19.2213 5.9485L21.4034 5.94741V9.14553C21.4023 9.23631 21.329 9.3096 21.2393 9.3096H15.647C15.5562 9.3096 15.4829 9.23631 15.4829 9.14553V6.28866C15.4829 6.10163 15.636 5.9485 15.8242 5.94741H17.0328C17.1837 5.94741 17.3062 5.82491 17.3062 5.67397C17.3062 5.52413 17.1848 5.40272 17.0349 5.40163C17.0338 5.40163 17.0338 5.40163 17.0328 5.40163H15.8242C15.3342 5.40163 14.936 5.79986 14.936 6.28866V9.14553C14.936 9.5371 15.2554 9.85647 15.647 9.85647H15.7662V11.9465C15.374 12.0645 15.087 12.4288 15.087 12.8587C15.087 13.3826 15.5146 13.8103 16.0396 13.8103C16.5635 13.8103 16.9912 13.3826 16.9912 12.8587C16.9912 12.429 16.7045 12.0648 16.3131 11.9467V11.2292H26.381V11.9466C25.9891 12.0646 25.7027 12.4289 25.7018 12.8587C25.7029 13.3826 26.1295 13.8103 26.6545 13.8103C27.1784 13.8103 27.606 13.3826 27.606 12.8587C27.606 12.429 27.3193 12.0648 26.9279 11.9467V8.62764H27.1151C27.4691 8.62764 27.7572 8.33955 27.7572 7.9855V2.5465C27.7573 2.03332 27.3691 1.60555 26.8737 1.57252ZM25.8583 6.62182H21.9504V5.9485H25.8583V6.62182ZM23.1786 4.86022V4.65897C23.1797 4.36049 23.4225 4.11757 23.72 4.11757H25.318C25.6155 4.11757 25.8583 4.36049 25.8583 4.65897V5.40163H23.72C23.4225 5.40053 23.1797 5.15783 23.1786 4.86022ZM16.4444 12.8588C16.4433 13.0808 16.2618 13.2624 16.0397 13.2635C15.8166 13.2624 15.634 13.0808 15.634 12.8588C15.634 12.6358 15.8166 12.453 16.0397 12.453C16.2618 12.453 16.4433 12.6358 16.4444 12.8588ZM27.0593 12.8588C27.0593 13.0808 26.8777 13.2624 26.6546 13.2635C26.4315 13.2624 26.2499 13.0808 26.2488 12.8588C26.2499 12.6358 26.4315 12.453 26.6546 12.453C26.8777 12.453 27.0593 12.6358 27.0593 12.8588ZM26.3811 10.6824H16.3132V9.85647H21.2394C21.631 9.85647 21.9504 9.5371 21.9504 9.14553V8.62764H26.3811V10.6824ZM27.2104 7.9855C27.2104 8.03724 27.1668 8.08077 27.1152 8.08077C26.406 8.08077 22.6635 8.08077 21.9504 8.08077V7.16913H26.1318C26.2817 7.16913 26.4053 7.04586 26.4053 6.89525V2.51971C26.4053 2.29964 26.5874 2.10266 26.8371 2.11808C27.043 2.13186 27.2104 2.32403 27.2104 2.54639V7.9855Z" fill="black"/>
<path d="M17.8542 5.67371C17.8542 5.82465 17.9767 5.94715 18.1266 5.94715C18.2775 5.94715 18.4 5.82465 18.4 5.67371C18.4 5.52387 18.2775 5.40137 18.1266 5.40137C17.9767 5.40137 17.8542 5.52387 17.8542 5.67371Z" fill="black"/>
<path d="M3.77124 18.0488C3.92226 18.0488 4.04468 17.9264 4.04468 17.7754C4.04468 17.6244 3.92226 17.502 3.77124 17.502C3.62022 17.502 3.4978 17.6244 3.4978 17.7754C3.4978 17.9264 3.62022 18.0488 3.77124 18.0488Z" fill="black"/>
<path d="M0.393588 26.7905C0.393588 27.3156 0.82015 27.742 1.34515 27.742C1.87015 27.742 2.29781 27.3156 2.29781 26.7905C2.29781 26.3605 2.01081 25.997 1.61859 25.8794V25.1615H11.6866V25.8796C11.2952 25.9974 11.0084 26.3607 11.0084 26.7906C11.0084 27.3157 11.4361 27.7421 11.96 27.7421C12.485 27.7421 12.9127 27.3157 12.9127 26.7906C12.9127 26.3606 12.6257 25.9972 12.2334 25.8795C12.2334 25.1337 12.2334 24.5603 12.2334 23.7894H12.3527C12.7442 23.7883 13.0636 23.47 13.0636 23.0785V20.2216C13.0636 19.7316 12.6655 19.3335 12.1755 19.3335C11.3744 19.3335 6.02268 19.3335 5.22184 19.3335C5.31393 19.1739 5.36764 18.9893 5.36796 18.7921V18.5908C5.36796 18.2769 5.23234 17.9783 4.99609 17.7716C4.88671 17.6765 4.70515 17.6885 4.60999 17.7979C4.51046 17.9116 4.52249 18.0844 4.63624 18.184C4.75546 18.289 4.82109 18.4333 4.82109 18.5908V18.7921C4.81999 19.0907 4.57718 19.3335 4.27968 19.3335H2.1414V18.5908C2.1414 18.2944 2.38203 18.0516 2.67953 18.0494C2.82937 18.0494 2.95187 17.9258 2.95078 17.7749C2.95078 17.625 2.82828 17.5037 2.67843 17.5037H2.67624C2.48167 17.5048 2.29934 17.5582 2.14129 17.6494V16.4522C2.14129 15.9244 1.70062 15.4681 1.12618 15.505C0.630603 15.5381 0.242432 15.9658 0.242432 16.4789V21.918C0.242432 22.2721 0.530525 22.5602 0.884572 22.5602H1.07171V25.8797C0.679822 25.997 0.393588 26.3605 0.393588 26.7905ZM1.75093 26.7905C1.74984 27.0136 1.56828 27.1951 1.34515 27.1951C1.12203 27.1951 0.940463 27.0136 0.940463 26.7905C0.940463 26.5673 1.12203 26.3859 1.34515 26.3847C1.56828 26.3859 1.74984 26.5673 1.75093 26.7905ZM12.3658 26.7905C12.3647 27.0136 12.1831 27.1951 11.96 27.1951C11.7369 27.1951 11.5553 27.0136 11.5553 26.7905C11.5553 26.5693 11.7339 26.3895 11.9543 26.3852C11.9563 26.3852 11.958 26.3858 11.96 26.3858C11.962 26.3858 11.9637 26.3852 11.9657 26.3852C12.1861 26.3895 12.3647 26.5692 12.3658 26.7905ZM12.5167 20.2214V23.0783C12.5167 23.1678 12.4423 23.2412 12.3527 23.2423H6.7614C6.67062 23.2412 6.59734 23.1678 6.59624 23.0783C6.59624 22.9802 6.59624 19.8801 6.59624 19.8801H12.1755C12.3636 19.8801 12.5167 20.0334 12.5167 20.2214ZM6.04937 19.8801V20.5539H2.1414V19.8801H6.04937ZM0.789307 21.9177V16.4786C0.789307 16.2562 0.95676 16.064 1.16271 16.0503C1.40804 16.0339 1.59453 16.2285 1.59453 16.4519V20.8274C1.59453 20.9809 1.71998 21.1009 1.86796 21.1009H6.04937V22.013H0.884572C0.832947 22.013 0.789307 21.9694 0.789307 21.9177ZM6.04937 22.5598V23.0783C6.05046 23.4698 6.36874 23.7881 6.7614 23.7892H11.6866V24.6145H1.61859V22.5598H6.04937Z" fill="black"/>
<path d="M19.2412 24.8878C19.2412 24.7369 19.1176 24.6133 18.9678 24.6133C18.8168 24.6133 18.6943 24.7369 18.6943 24.8878C18.6943 25.0377 18.8168 25.1602 18.9678 25.1602C19.1176 25.1602 19.2412 25.0377 19.2412 24.8878Z" fill="black"/>
<path d="M26.8077 15.501C26.286 15.5022 25.8594 15.9275 25.8583 16.4505V17.6477C25.6986 17.5556 25.5141 17.5019 25.3169 17.5016H23.72C23.1207 17.5028 22.6318 17.9906 22.6318 18.5898V18.7911C22.6318 18.9883 22.6854 19.1729 22.7773 19.3325C21.9765 19.3325 16.6223 19.3325 15.8242 19.3325C15.3342 19.3325 14.936 19.7306 14.936 20.2206V23.0774C14.936 23.4689 15.2554 23.7872 15.647 23.7883H15.7662V25.8784C15.374 25.9961 15.087 26.3595 15.087 26.7895C15.087 27.3146 15.5146 27.741 16.0396 27.741C16.5646 27.741 16.9912 27.3146 16.9912 26.7895C16.9912 26.3592 16.7044 25.9955 16.312 25.878V25.1598H17.8738C18.0237 25.1598 18.1473 25.0373 18.1473 24.8874C18.1473 24.7365 18.0237 24.6129 17.8738 24.6129H16.312V23.7882H21.2393C21.6309 23.7871 21.9492 23.4688 21.9503 23.0773V22.5588H26.381V24.6129H20.0613C19.9104 24.6129 19.7879 24.7365 19.7879 24.8874C19.7879 25.0373 19.9104 25.1598 20.0613 25.1598H26.381V25.8783C25.9888 25.9959 25.7018 26.3594 25.7018 26.7894C25.7018 27.3145 26.1295 27.7409 26.6545 27.7409C27.1784 27.7409 27.606 27.3145 27.606 26.7894C27.606 26.3596 27.3193 25.9963 26.9279 25.8784V22.5589H27.1149C27.4682 22.5579 27.7559 22.2702 27.757 21.9169V19.9875C27.757 19.8366 27.6345 19.7141 27.4835 19.7141C27.3326 19.7141 27.2101 19.8366 27.2101 19.9875V21.9169C27.2101 21.9672 27.1663 22.0121 27.1149 22.0121H21.9503V21.0999H26.1317C26.284 21.0999 26.4051 20.9775 26.4051 20.8264C26.4051 18.8915 26.4051 20.8095 26.4051 16.4504C26.4062 16.2293 26.5867 16.0489 26.8076 16.0477C27.0437 16.0477 27.2101 16.2601 27.2101 16.4777V17.8C27.2101 17.9499 27.3326 18.0735 27.4835 18.0735C27.6345 18.0735 27.757 17.9499 27.757 17.8C27.757 17.7989 27.757 17.7989 27.757 17.7977V16.4777C27.7571 15.9388 27.3305 15.501 26.8077 15.501ZM16.4444 26.7896C16.4444 27.0127 16.2629 27.1943 16.0397 27.1943C15.8166 27.1943 15.634 27.0127 15.634 26.7896C15.634 26.5837 15.7919 26.3914 16.0454 26.3843C16.2658 26.3886 16.4444 26.5683 16.4444 26.7896ZM27.0593 26.7896C27.0593 27.0127 26.8766 27.1943 26.6546 27.1943C26.4315 27.1943 26.2499 27.0127 26.2488 26.7896C26.2499 26.5664 26.4315 26.385 26.6546 26.3838C26.8766 26.385 27.0593 26.5664 27.0593 26.7896ZM23.1786 18.791V18.5897C23.1797 18.2922 23.4226 18.0495 23.72 18.0483H25.3169C25.6155 18.0495 25.8583 18.2922 25.8583 18.5897V19.3324H23.72C23.4226 19.3324 23.1797 19.0896 23.1786 18.791ZM21.2394 23.2414H15.6471C15.5563 23.2404 15.483 23.167 15.483 23.0774V20.2205C15.483 20.0324 15.6361 19.8793 15.8243 19.8793H21.4024L21.4035 23.0774C21.4024 23.1671 21.3291 23.2405 21.2394 23.2414ZM25.8583 20.553H21.9504V19.8793H25.8583V20.553Z" fill="black"/>
<path d="M27.4836 19.168C27.6347 19.168 27.7571 19.0455 27.7571 18.8945C27.7571 18.7435 27.6347 18.6211 27.4836 18.6211C27.3326 18.6211 27.2102 18.7435 27.2102 18.8945C27.2102 19.0455 27.3326 19.168 27.4836 19.168Z" fill="black"/>
</svg>
