<svg width="35" height="35" viewBox="0 0 35 35" fill="none" xmlns="http://www.w3.org/2000/svg">
<g clip-path="url(#clip0_2801_5580)">
<path d="M29.29 17.3301H4.95605V21.3291H29.29V17.3301Z" fill="#E8E9EA"/>
<path opacity="0.1" d="M29.2899 17.3301H27.677V21.3291H29.2899V17.3301Z" fill="black"/>
<path opacity="0.1" d="M4.95605 17.3301V21.3291H14.1233C12.2636 20.1435 11.8644 18.4626 11.9836 17.3301H4.95605Z" fill="black"/>
<path d="M22.0314 22.4175C21.8311 22.4175 21.65 22.2795 21.6034 22.0759L20.1134 15.5599C20.0594 15.3233 20.2073 15.0876 20.4439 15.0335C20.6806 14.9797 20.9162 15.1274 20.9703 15.364L22.4602 21.8799C22.5143 22.1165 22.3664 22.3522 22.1298 22.4063C22.0968 22.4138 22.0639 22.4175 22.0314 22.4175Z" fill="#76B7EB"/>
<path opacity="0.14" d="M22.0314 22.4175C21.8311 22.4175 21.65 22.2795 21.6034 22.0759L20.1134 15.5599C20.0594 15.3233 20.2073 15.0876 20.4439 15.0335C20.6806 14.9797 20.9162 15.1274 20.9703 15.364L22.4602 21.8799C22.5143 22.1165 22.3664 22.3522 22.1298 22.4063C22.0968 22.4138 22.0639 22.4175 22.0314 22.4175Z" fill="black"/>
<path d="M17.9525 22.212C17.7553 22.212 17.5759 22.0783 17.5263 21.8783L16.4043 17.3557C16.2586 16.7687 16.3888 16.1587 16.7615 15.6823C17.1341 15.2058 17.6948 14.9326 18.2997 14.9326H23.2536C24.0237 14.9326 24.7238 15.3871 25.0373 16.0904L25.6548 17.4756C26.0587 18.3817 26.2635 19.344 26.2635 20.336V21.7724C26.2635 22.0151 26.0668 22.2119 25.824 22.2119C25.5813 22.2119 25.3846 22.0151 25.3846 21.7724V20.336C25.3846 19.4681 25.2054 18.6262 24.852 17.8335L24.2345 16.4482C24.0621 16.0614 23.6771 15.8115 23.2536 15.8115H18.2997C17.967 15.8115 17.6587 15.9618 17.4538 16.2238C17.2488 16.4858 17.1772 16.8212 17.2573 17.1441L18.3794 21.6666C18.4378 21.9022 18.2943 22.1405 18.0587 22.1989C18.0232 22.2077 17.9875 22.212 17.9525 22.212Z" fill="#76B7EB"/>
<path d="M31.4917 16.0462H29.9213C29.5726 16.0462 29.2899 16.3289 29.2899 16.6776V20.8286C29.2899 21.1051 29.0657 21.3294 28.7891 21.3294H5.45697C5.18041 21.3294 4.95617 21.1051 4.95617 20.8286V13.269C4.95617 12.9204 4.67352 12.6377 4.32482 12.6377H2.75439C2.4057 12.6378 2.12305 12.9204 2.12305 13.269V21.8248C2.12305 22.8107 2.92227 23.6099 3.90811 23.6099H30.338C31.3238 23.6099 32.123 22.8107 32.123 21.8248V16.6776C32.123 16.3289 31.8404 16.0462 31.4917 16.0462Z" fill="#376E9F"/>
<path d="M11.7562 17.3629H7.45007C7.05901 17.3629 6.69673 17.1576 6.49587 16.822L6.31417 16.5185C6.15667 16.2554 6.15667 15.927 6.31417 15.6638L6.49587 15.3603C6.69673 15.0248 7.05901 14.8193 7.45007 14.8193H11.7562C12.1472 14.8193 12.5095 15.0247 12.7104 15.3603L12.8921 15.6638C13.0496 15.9269 13.0496 16.2554 12.8921 16.5185L12.7104 16.822C12.5095 17.1576 12.1472 17.3629 11.7562 17.3629Z" fill="#76B7EB"/>
<path d="M26.8937 26.5215H7.35229C7.10954 26.5215 6.91284 26.3247 6.91284 26.082C6.91284 25.8393 7.10954 25.6426 7.35229 25.6426H26.8937C27.1364 25.6426 27.3331 25.8393 27.3331 26.082C27.3331 26.3247 27.1364 26.5215 26.8937 26.5215Z" fill="#376E9F"/>
<path d="M7.35221 23.6094H5.78564V27.9932H7.35221V23.6094Z" fill="#76B7EB"/>
<path opacity="0.15" d="M7.35221 23.6094H5.78564V24.9993H7.35221V23.6094Z" fill="black"/>
<path d="M6.56912 30.5796C7.40606 30.5796 8.08453 29.9012 8.08453 29.0642C8.08453 28.2273 7.40606 27.5488 6.56912 27.5488C5.73218 27.5488 5.05371 28.2273 5.05371 29.0642C5.05371 29.9012 5.73218 30.5796 6.56912 30.5796Z" fill="#495059"/>
<path d="M6.56908 29.5044C6.81191 29.5044 7.00877 29.3075 7.00877 29.0647C7.00877 28.8219 6.81191 28.625 6.56908 28.625C6.32625 28.625 6.12939 28.8219 6.12939 29.0647C6.12939 29.3075 6.32625 29.5044 6.56908 29.5044Z" fill="#76B7EB"/>
<path d="M28.4601 23.6094H26.8936V27.9932H28.4601V23.6094Z" fill="#76B7EB"/>
<path opacity="0.15" d="M28.4601 23.6094H26.8936V24.9993H28.4601V23.6094Z" fill="black"/>
<path d="M27.677 30.5796C28.514 30.5796 29.1924 29.9012 29.1924 29.0642C29.1924 28.2273 28.514 27.5488 27.677 27.5488C26.8401 27.5488 26.1616 28.2273 26.1616 29.0642C26.1616 29.9012 26.8401 30.5796 27.677 30.5796Z" fill="#495059"/>
<path d="M27.677 29.5044C27.9198 29.5044 28.1167 29.3075 28.1167 29.0647C28.1167 28.8219 27.9198 28.625 27.677 28.625C27.4342 28.625 27.2373 28.8219 27.2373 29.0647C27.2373 29.3075 27.4342 29.5044 27.677 29.5044Z" fill="#76B7EB"/>
<path opacity="0.1" d="M12.6702 21.3294H5.45697C5.18041 21.3294 4.95617 21.1051 4.95617 20.8286V13.269C4.95617 12.9204 4.67352 12.6377 4.32482 12.6377H2.75439C2.4057 12.6378 2.12305 12.9204 2.12305 13.269V21.8248C2.12305 22.8107 2.92227 23.6099 3.90811 23.6099H14.8527C13.59 23.0029 12.9518 22.1117 12.6702 21.3294Z" fill="black"/>
<path opacity="0.1" d="M7.45007 14.8193C7.05901 14.8193 6.69673 15.0247 6.49587 15.3603L6.31417 15.6638C6.15667 15.9269 6.15667 16.2554 6.31417 16.5185L6.49587 16.822C6.69673 17.1575 7.05901 17.3629 7.45007 17.3629H9.16042C8.03419 16.9054 7.97524 15.5099 8.30231 14.8194L7.45007 14.8193Z" fill="black"/>
<path d="M17.123 12.8495C19.2868 12.8495 21.0409 11.0954 21.0409 8.9316C21.0409 6.76779 19.2868 5.01367 17.123 5.01367C14.9592 5.01367 13.2051 6.76779 13.2051 8.9316C13.2051 11.0954 14.9592 12.8495 17.123 12.8495Z" fill="#F97254"/>
<path d="M17.9238 7.97387V6.78289C17.9238 6.67355 17.8352 6.58496 17.7259 6.58496H16.5204C16.4111 6.58496 16.3224 6.67355 16.3224 6.78289V7.97393C16.3224 8.06064 16.2521 8.13102 16.1653 8.13102H14.9743C14.865 8.13102 14.7764 8.21961 14.7764 8.32895V9.53445C14.7764 9.64379 14.865 9.73238 14.9743 9.73238H16.1653C16.2521 9.73238 16.3224 9.80269 16.3224 9.88947V11.0805C16.3224 11.1898 16.411 11.2784 16.5204 11.2784H17.7259C17.8352 11.2784 17.9238 11.1898 17.9238 11.0805V9.88947C17.9238 9.80275 17.9941 9.73238 18.0809 9.73238H19.2719C19.3812 9.73238 19.4698 9.64379 19.4698 9.53445V8.32889C19.4698 8.21955 19.3812 8.13096 19.2719 8.13096H18.0809C17.9941 8.1309 17.9238 8.06064 17.9238 7.97387Z" fill="white"/>
</g>
<defs>
<clipPath id="clip0_2801_5580">
<rect width="30" height="30" fill="white" transform="translate(2.12305 2.79688)"/>
</clipPath>
</defs>
</svg>
