<svg width="34" height="35" viewBox="0 0 34 35" fill="none" xmlns="http://www.w3.org/2000/svg">
<g clip-path="url(#clip0_2801_5644)">
<path d="M9.3457 19.8691H4.6582C4.39898 19.8691 4.18945 20.0791 4.18945 20.3379V22.2129C4.18945 22.4716 4.39898 22.6816 4.6582 22.6816H10.2832C10.5424 22.6816 10.752 22.4716 10.752 22.2129V21.2754C10.752 20.5001 10.121 19.8691 9.3457 19.8691Z" fill="#855DDB"/>
<path d="M29.0332 24.5566H4.6582C4.39898 24.5566 4.18945 24.7666 4.18945 25.0254V26.9004C4.18945 27.1591 4.39898 27.3691 4.6582 27.3691H29.0332C29.2924 27.3691 29.502 27.1591 29.502 26.9004V25.0254C29.502 24.7666 29.2924 24.5566 29.0332 24.5566Z" fill="#D7D7D9"/>
<path d="M28.5645 31.5879H5.12695C4.86773 31.5879 4.6582 31.3779 4.6582 31.1191C4.6582 30.8604 4.86773 30.6504 5.12695 30.6504H28.5645C28.8237 30.6504 29.0332 30.8604 29.0332 31.1191C29.0332 31.3779 28.8237 31.5879 28.5645 31.5879Z" fill="#D7D7D9"/>
<path d="M13.0957 21.7441H4.6582C4.39898 21.7441 4.18945 21.9541 4.18945 22.2129V25.0254C4.18945 25.2841 4.39898 25.4941 4.6582 25.4941H13.0957C13.3549 25.4941 13.5645 25.2841 13.5645 25.0254V22.2129C13.5645 21.9541 13.3549 21.7441 13.0957 21.7441Z" fill="white"/>
<path d="M3.7207 16.1191C2.94539 16.1191 2.31445 16.7501 2.31445 17.5254V30.078C2.31445 30.2632 2.4232 30.431 2.59289 30.5065C2.7607 30.582 2.95992 30.5505 3.09727 30.4263C3.44695 30.1109 3.99445 30.1109 4.34414 30.4263C4.43227 30.5051 4.54477 30.5468 4.6582 30.5468C4.72289 30.5468 4.78758 30.5337 4.84852 30.5065C5.0182 30.431 5.12695 30.2632 5.12695 30.078V17.5254C5.12695 16.7501 4.49602 16.1191 3.7207 16.1191Z" fill="#D7D7D9"/>
<path d="M3.7207 32.9941C4.75624 32.9941 5.5957 32.1547 5.5957 31.1191C5.5957 30.0836 4.75624 29.2441 3.7207 29.2441C2.68517 29.2441 1.8457 30.0836 1.8457 31.1191C1.8457 32.1547 2.68517 32.9941 3.7207 32.9941Z" fill="#855DDB"/>
<path d="M29.0332 19.8691H14.0332C13.2565 19.8691 12.627 20.4987 12.627 21.2754V25.4941H29.0332C29.292 25.4941 29.502 25.2841 29.502 25.0254V20.3379C29.502 20.0791 29.292 19.8691 29.0332 19.8691Z" fill="#855DDB"/>
<path d="M16.8457 17.6084C19.1757 17.6084 21.0645 15.7196 21.0645 13.3896C21.0645 11.0597 19.1757 9.1709 16.8457 9.1709C14.5158 9.1709 12.627 11.0597 12.627 13.3896C12.627 15.7196 14.5158 17.6084 16.8457 17.6084Z" fill="#FF3D62"/>
<path d="M18.7927 12.4162H17.8192V11.4427C17.8192 11.2635 17.6741 11.1182 17.4946 11.1182H16.1966C16.0171 11.1182 15.8721 11.2635 15.8721 11.4427V12.4162H14.8985C14.719 12.4162 14.574 12.5616 14.574 12.7408V14.0388C14.574 14.218 14.719 14.3634 14.8985 14.3634H15.8721V15.3369C15.8721 15.516 16.0171 15.6614 16.1966 15.6614H17.4946C17.6741 15.6614 17.8192 15.516 17.8192 15.3369V14.3634H18.7927C18.9722 14.3634 19.1172 14.218 19.1172 14.0388V12.7408C19.1172 12.5616 18.9722 12.4162 18.7927 12.4162Z" fill="white"/>
<path d="M29.9707 17.9941C29.1954 17.9941 28.5645 18.6251 28.5645 19.4004V30.078C28.5645 30.2632 28.6732 30.431 28.8429 30.5065C29.0112 30.582 29.2095 30.5505 29.3473 30.4263C29.697 30.1109 30.2445 30.1109 30.5941 30.4263C30.6823 30.5055 30.7948 30.5468 30.9082 30.5468C30.9729 30.5468 31.0376 30.5337 31.0985 30.5065C31.2682 30.431 31.377 30.2632 31.377 30.078V19.4004C31.377 18.6251 30.746 17.9941 29.9707 17.9941Z" fill="#D7D7D9"/>
<path d="M29.9707 32.9941C31.0062 32.9941 31.8457 32.1547 31.8457 31.1191C31.8457 30.0836 31.0062 29.2441 29.9707 29.2441C28.9352 29.2441 28.0957 30.0836 28.0957 31.1191C28.0957 32.1547 28.9352 32.9941 29.9707 32.9941Z" fill="#855DDB"/>
</g>
<path d="M28.3457 15.4062L32.1543 10.3281H30.123V6.36719H26.5684V10.3281H24.5371L28.3457 15.4062Z" fill="#6E4ABA"/>
<path d="M26.5684 4.64062H30.123V5.65625H26.5684V4.64062Z" fill="#6E4ABA"/>
<path d="M26.5684 2.91406H30.123V3.92969H26.5684V2.91406Z" fill="#6E4ABA"/>
<defs>
<clipPath id="clip0_2801_5644">
<rect width="30" height="30" fill="white" transform="translate(1.8457 4.40039)"/>
</clipPath>
</defs>
</svg>
